<svg xmlns="http://www.w3.org/2000/svg" width="50" height="33.783784" viewBox="0 0 259 175" fill="none">
  <path d="M 43 3 L 42 4 L 38 4 L 37 5 L 35 5 L 34 6 L 32 6 L 31 7 L 30 7 L 29 8 L 28 8 L 26 10 L 25 10 L 23 12 L 22 12 L 16 18 L 16 19 L 13 22 L 13 23 L 12 24 L 12 25 L 11 26 L 11 27 L 10 28 L 10 29 L 9 30 L 9 32 L 8 33 L 8 36 L 7 37 L 7 121 L 3 125 L 3 126 L 2 127 L 2 128 L 1 129 L 1 138 L 2 139 L 2 140 L 3 141 L 3 142 L 8 147 L 9 147 L 10 148 L 14 148 L 15 149 L 34 149 L 35 150 L 35 152 L 36 153 L 36 155 L 37 156 L 37 157 L 39 159 L 39 160 L 47 168 L 48 168 L 49 169 L 50 169 L 51 170 L 53 170 L 54 171 L 57 171 L 58 172 L 66 172 L 67 171 L 70 171 L 71 170 L 73 170 L 74 169 L 75 169 L 76 168 L 77 168 L 80 165 L 81 165 L 81 164 L 86 159 L 86 158 L 87 157 L 87 156 L 88 155 L 88 153 L 89 152 L 89 150 L 90 149 L 167 149 L 168 150 L 168 152 L 169 153 L 169 155 L 170 156 L 170 157 L 171 158 L 171 159 L 176 164 L 176 165 L 177 165 L 180 168 L 181 168 L 182 169 L 183 169 L 184 170 L 186 170 L 187 171 L 190 171 L 191 172 L 199 172 L 200 171 L 203 171 L 204 170 L 206 170 L 207 169 L 208 169 L 209 168 L 210 168 L 218 160 L 218 159 L 220 157 L 220 156 L 221 155 L 221 153 L 222 152 L 222 150 L 223 149 L 242 149 L 243 148 L 247 148 L 248 147 L 249 147 L 254 142 L 254 141 L 255 140 L 255 139 L 256 138 L 256 129 L 255 128 L 255 127 L 254 126 L 254 125 L 250 121 L 250 24 L 249 23 L 249 21 L 248 20 L 248 18 L 247 17 L 247 16 L 244 13 L 244 12 L 242 10 L 241 10 L 238 7 L 237 7 L 236 6 L 235 6 L 234 5 L 233 5 L 232 4 L 229 4 L 228 3 Z M 218 129 L 219 128 L 244 128 L 247 131 L 247 136 L 244 139 L 243 139 L 242 140 L 223 140 L 222 139 L 222 136 L 221 135 L 221 133 L 220 132 L 220 131 Z M 13 128 L 38 128 L 39 129 L 37 131 L 37 132 L 36 133 L 36 135 L 35 136 L 35 139 L 34 140 L 15 140 L 14 139 L 13 139 L 10 136 L 10 131 Z M 191 126 L 192 125 L 198 125 L 199 126 L 201 126 L 202 127 L 203 127 L 204 128 L 205 128 L 211 134 L 211 135 L 212 136 L 212 137 L 213 138 L 213 140 L 214 141 L 214 147 L 213 148 L 213 151 L 212 152 L 212 153 L 209 156 L 209 157 L 208 158 L 207 158 L 204 161 L 203 161 L 202 162 L 200 162 L 199 163 L 191 163 L 190 162 L 188 162 L 187 161 L 186 161 L 183 158 L 182 158 L 181 157 L 181 156 L 178 153 L 178 152 L 177 151 L 177 148 L 176 147 L 176 141 L 177 140 L 177 138 L 178 137 L 178 136 L 179 135 L 179 134 L 185 128 L 186 128 L 187 127 L 188 127 L 189 126 Z M 195 131 L 194 132 L 190 132 L 188 134 L 187 134 L 184 137 L 184 138 L 183 139 L 183 142 L 182 143 L 182 145 L 183 146 L 183 149 L 184 150 L 184 151 L 188 155 L 189 155 L 190 156 L 192 156 L 193 157 L 197 157 L 198 156 L 200 156 L 201 155 L 202 155 L 206 151 L 206 150 L 207 149 L 207 146 L 208 145 L 208 143 L 207 142 L 207 139 L 205 137 L 205 136 L 203 134 L 202 134 L 200 132 L 196 132 Z M 194 141 L 195 140 L 196 141 L 197 141 L 198 142 L 198 143 L 199 144 L 199 145 L 196 148 L 194 148 L 191 145 L 191 144 L 192 143 L 192 142 L 193 141 Z M 58 126 L 59 125 L 65 125 L 66 126 L 68 126 L 69 127 L 70 127 L 71 128 L 72 128 L 78 134 L 78 135 L 79 136 L 79 137 L 80 138 L 80 140 L 81 141 L 81 147 L 80 148 L 80 151 L 79 152 L 79 153 L 76 156 L 76 157 L 75 158 L 74 158 L 71 161 L 70 161 L 69 162 L 67 162 L 66 163 L 58 163 L 57 162 L 55 162 L 54 161 L 53 161 L 50 158 L 49 158 L 48 157 L 48 156 L 45 153 L 45 152 L 44 151 L 44 148 L 43 147 L 43 141 L 44 140 L 44 138 L 45 137 L 45 136 L 46 135 L 46 134 L 52 128 L 53 128 L 54 127 L 55 127 L 56 126 Z M 62 131 L 61 132 L 57 132 L 55 134 L 54 134 L 52 136 L 52 137 L 50 139 L 50 142 L 49 143 L 49 145 L 50 146 L 50 149 L 51 150 L 51 151 L 55 155 L 56 155 L 57 156 L 59 156 L 60 157 L 64 157 L 65 156 L 67 156 L 68 155 L 69 155 L 73 151 L 73 150 L 74 149 L 74 146 L 75 145 L 75 143 L 74 142 L 74 139 L 73 138 L 73 137 L 70 134 L 69 134 L 67 132 L 63 132 Z M 61 141 L 62 140 L 63 141 L 64 141 L 65 142 L 65 143 L 66 144 L 66 145 L 63 148 L 61 148 L 58 145 L 58 144 L 59 143 L 59 142 L 60 141 Z M 227 35 L 228 34 L 240 34 L 241 35 L 241 72 L 240 73 L 228 73 L 227 72 Z M 42 13 L 43 12 L 227 12 L 228 13 L 230 13 L 231 14 L 232 14 L 233 15 L 234 15 L 238 19 L 238 20 L 240 22 L 240 24 L 239 25 L 228 25 L 227 26 L 224 26 L 222 28 L 221 28 L 220 29 L 220 30 L 219 31 L 219 32 L 218 33 L 218 74 L 219 75 L 219 77 L 223 81 L 224 81 L 225 82 L 240 82 L 241 83 L 241 118 L 240 119 L 206 119 L 205 118 L 204 118 L 203 117 L 199 117 L 198 116 L 192 116 L 191 117 L 187 117 L 186 118 L 185 118 L 184 119 L 183 119 L 182 120 L 181 120 L 180 121 L 179 121 L 172 128 L 172 129 L 170 131 L 170 133 L 169 134 L 169 135 L 168 136 L 168 139 L 167 140 L 90 140 L 89 139 L 89 136 L 88 135 L 88 134 L 87 133 L 87 131 L 85 129 L 85 128 L 78 121 L 77 121 L 76 120 L 75 120 L 74 119 L 73 119 L 72 118 L 71 118 L 70 117 L 66 117 L 65 116 L 59 116 L 58 117 L 54 117 L 53 118 L 52 118 L 51 119 L 17 119 L 16 118 L 16 38 L 17 37 L 17 34 L 18 33 L 18 32 L 19 31 L 19 30 L 20 29 L 20 28 L 22 26 L 22 25 L 29 18 L 30 18 L 32 16 L 33 16 L 34 15 L 35 15 L 36 14 L 38 14 L 39 13 Z M 229 98 L 227 100 L 227 102 L 226 103 L 226 106 L 227 107 L 227 109 L 229 111 L 233 111 L 235 109 L 235 100 L 233 98 Z M 49 25 L 48 26 L 43 26 L 42 27 L 41 27 L 40 28 L 39 28 L 38 29 L 37 29 L 30 36 L 30 37 L 29 38 L 29 40 L 28 41 L 28 43 L 27 44 L 27 74 L 28 75 L 28 76 L 29 77 L 29 78 L 32 81 L 34 81 L 35 82 L 196 82 L 197 81 L 199 81 L 202 78 L 202 77 L 203 76 L 203 75 L 204 74 L 204 34 L 203 33 L 203 31 L 201 29 L 201 28 L 200 28 L 198 26 L 195 26 L 194 25 Z M 166 35 L 167 34 L 193 34 L 195 36 L 195 72 L 194 73 L 167 73 L 166 72 Z M 120 35 L 121 34 L 156 34 L 157 35 L 157 72 L 156 73 L 121 73 L 120 72 Z M 74 35 L 75 34 L 110 34 L 111 35 L 111 72 L 110 73 L 75 73 L 74 72 Z M 47 35 L 48 34 L 64 34 L 65 35 L 65 72 L 64 73 L 37 73 L 36 72 L 36 45 L 37 44 L 37 42 L 39 40 L 39 39 L 40 38 L 41 38 L 43 36 L 44 36 L 45 35 Z" fill="#FFFFFF" fill-rule="evenodd"/>
</svg>