<?xml version="1.0" encoding="UTF-8" standalone="no"?>
<svg xmlns="http://www.w3.org/2000/svg"
     width="50px" height="28.700px"
     viewBox="0 0 277 159" version="1.1">
  <path d="M 120,74 L 120,82 L 137,82 L 137,74 Z M 269,64 L 268,63 L 268,62 L 267,62 L 266,61 L 262,61 L 261,60 L 255,60 L 254,59 L 248,59 L 247,58 L 241,58 L 240,57 L 236,57 L 235,56 L 234,56 L 232,54 L 231,54 L 230,53 L 229,53 L 228,52 L 227,52 L 226,51 L 225,51 L 224,50 L 223,50 L 222,49 L 221,49 L 220,48 L 219,48 L 218,47 L 216,47 L 215,46 L 214,46 L 213,45 L 211,45 L 210,44 L 209,44 L 208,43 L 206,43 L 205,42 L 202,42 L 201,41 L 199,41 L 198,40 L 195,40 L 194,39 L 191,39 L 190,38 L 185,38 L 184,37 L 178,37 L 177,36 L 163,36 L 162,35 L 154,35 L 153,36 L 139,36 L 138,37 L 132,37 L 131,38 L 127,38 L 126,39 L 122,39 L 121,40 L 118,40 L 117,41 L 115,41 L 114,42 L 111,42 L 110,43 L 109,43 L 108,44 L 106,44 L 105,45 L 103,45 L 102,46 L 101,46 L 100,47 L 98,47 L 97,48 L 96,48 L 95,49 L 94,49 L 93,50 L 92,50 L 91,51 L 90,51 L 89,52 L 88,52 L 87,53 L 86,53 L 85,54 L 84,54 L 83,55 L 82,55 L 81,56 L 80,56 L 78,58 L 77,58 L 76,59 L 75,59 L 74,60 L 73,60 L 72,61 L 65,61 L 64,62 L 57,62 L 56,63 L 52,63 L 51,64 L 47,64 L 46,65 L 44,65 L 43,66 L 41,66 L 40,67 L 38,67 L 37,68 L 35,68 L 34,69 L 33,69 L 32,70 L 31,70 L 30,71 L 29,71 L 28,72 L 27,72 L 26,73 L 25,73 L 24,74 L 23,74 L 22,75 L 21,75 L 17,79 L 17,80 L 15,82 L 15,83 L 14,84 L 14,119 L 15,120 L 16,120 L 17,121 L 31,121 L 33,123 L 33,124 L 34,125 L 34,126 L 36,128 L 36,129 L 38,131 L 39,131 L 42,134 L 43,134 L 44,135 L 45,135 L 46,136 L 48,136 L 49,137 L 53,137 L 54,138 L 58,138 L 59,137 L 63,137 L 64,136 L 66,136 L 67,135 L 68,135 L 70,133 L 71,133 L 77,127 L 77,126 L 78,125 L 78,124 L 79,123 L 79,122 L 80,121 L 193,121 L 195,123 L 195,124 L 196,125 L 196,126 L 199,129 L 199,130 L 200,130 L 204,134 L 205,134 L 206,135 L 207,135 L 208,136 L 210,136 L 211,137 L 215,137 L 216,138 L 221,138 L 222,137 L 225,137 L 226,136 L 228,136 L 229,135 L 230,135 L 231,134 L 232,134 L 239,127 L 239,126 L 240,125 L 240,124 L 241,123 L 241,122 L 242,121 L 244,121 L 245,120 L 247,120 L 248,119 L 249,119 L 250,118 L 252,118 L 253,117 L 254,117 L 255,116 L 257,116 L 258,115 L 259,115 L 260,114 L 261,114 L 262,113 L 263,113 L 266,110 L 266,109 L 267,108 L 267,107 L 268,106 L 268,104 L 269,103 Z M 215,95 L 221,95 L 222,96 L 224,96 L 225,97 L 226,97 L 228,99 L 229,99 L 231,101 L 231,102 L 233,104 L 233,105 L 234,106 L 234,108 L 235,109 L 235,116 L 234,117 L 234,119 L 232,121 L 232,122 L 227,127 L 226,127 L 225,128 L 223,128 L 222,129 L 213,129 L 212,128 L 211,128 L 210,127 L 209,127 L 203,121 L 203,120 L 202,119 L 202,117 L 201,116 L 201,108 L 202,107 L 202,105 L 204,103 L 204,102 L 208,98 L 209,98 L 210,97 L 211,97 L 212,96 L 214,96 Z M 52,95 L 59,95 L 60,96 L 62,96 L 63,97 L 64,97 L 71,104 L 71,105 L 72,106 L 72,108 L 73,109 L 73,115 L 72,116 L 72,118 L 71,119 L 71,120 L 70,121 L 70,122 L 66,126 L 65,126 L 63,128 L 61,128 L 60,129 L 51,129 L 50,128 L 49,128 L 48,127 L 47,127 L 41,121 L 41,120 L 40,119 L 40,118 L 39,117 L 39,107 L 40,106 L 40,105 L 41,104 L 41,103 L 46,98 L 47,98 L 48,97 L 49,97 L 50,96 L 51,96 Z M 22,87 L 24,85 L 24,84 L 25,83 L 26,83 L 28,81 L 29,81 L 30,80 L 31,80 L 32,79 L 33,79 L 34,78 L 35,78 L 36,77 L 37,77 L 38,76 L 40,76 L 41,75 L 42,75 L 43,74 L 46,74 L 47,73 L 49,73 L 50,72 L 53,72 L 54,71 L 59,71 L 60,70 L 71,70 L 72,69 L 149,69 L 150,70 L 150,111 L 149,112 L 82,112 L 81,111 L 81,107 L 80,106 L 80,103 L 79,102 L 79,101 L 78,100 L 78,99 L 75,96 L 75,95 L 72,92 L 71,92 L 69,90 L 68,90 L 67,89 L 66,89 L 65,88 L 63,88 L 62,87 L 50,87 L 49,88 L 47,88 L 46,89 L 45,89 L 44,90 L 43,90 L 42,91 L 41,91 L 34,98 L 34,99 L 33,100 L 33,101 L 32,102 L 32,104 L 31,105 L 31,108 L 30,109 L 30,111 L 29,112 L 23,112 L 22,111 Z M 261,70 L 261,73 L 260,74 L 248,74 L 248,82 L 260,82 L 261,83 L 261,100 L 260,101 L 260,103 L 256,107 L 255,107 L 254,108 L 252,108 L 251,109 L 250,109 L 249,110 L 247,110 L 246,111 L 245,111 L 244,112 L 243,111 L 243,106 L 242,105 L 242,103 L 241,102 L 241,101 L 240,100 L 240,99 L 239,98 L 239,97 L 234,92 L 233,92 L 231,90 L 230,90 L 229,89 L 228,89 L 227,88 L 225,88 L 224,87 L 212,87 L 211,88 L 209,88 L 208,89 L 207,89 L 206,90 L 205,90 L 204,91 L 203,91 L 197,97 L 197,98 L 196,99 L 196,100 L 194,102 L 194,104 L 193,105 L 193,109 L 192,110 L 192,111 L 191,112 L 159,112 L 158,111 L 158,70 L 159,69 L 207,69 L 219,57 L 220,58 L 221,58 L 222,59 L 223,59 L 224,60 L 225,60 L 226,61 L 227,61 L 228,62 L 229,62 L 231,64 L 232,64 L 233,65 L 236,65 L 237,66 L 243,66 L 244,67 L 250,67 L 251,68 L 257,68 L 258,69 L 260,69 Z M 158,45 L 159,44 L 173,44 L 174,45 L 181,45 L 182,46 L 187,46 L 188,47 L 191,47 L 192,48 L 195,48 L 196,49 L 199,49 L 200,50 L 202,50 L 203,51 L 205,51 L 206,52 L 208,52 L 210,54 L 203,61 L 159,61 L 158,60 Z M 150,45 L 150,60 L 149,61 L 93,61 L 92,60 L 93,59 L 94,59 L 95,58 L 96,58 L 97,57 L 98,57 L 99,56 L 100,56 L 101,55 L 102,55 L 103,54 L 105,54 L 106,53 L 108,53 L 109,52 L 110,52 L 111,51 L 113,51 L 114,50 L 117,50 L 118,49 L 120,49 L 121,48 L 124,48 L 125,47 L 129,47 L 130,46 L 134,46 L 135,45 L 143,45 L 144,44 L 149,44 Z" fill="#FFFFFF" fill-rule="evenodd"/>
</svg>