<svg xmlns="http://www.w3.org/2000/svg" width="50" height="21.03" viewBox="0 0 573 241" shape-rendering="geometricPrecision">
  <g fill="#FFFFFF" fill-rule="evenodd">
    <path d="M 446 172 L 445 173 L 444 173 L 443 174 L 442 174 L 441 175 L 441 176 L 439 178 L 439 187 L 441 189 L 441 190 L 442 191 L 443 191 L 444 192 L 445 192 L 446 193 L 452 193 L 453 192 L 454 192 L 455 191 L 456 191 L 458 189 L 458 188 L 459 187 L 459 185 L 460 184 L 460 181 L 459 180 L 459 178 L 458 177 L 458 176 L 456 174 L 455 174 L 454 173 L 453 173 L 452 172 Z" />
    <path d="M 133 172 L 132 173 L 131 173 L 127 177 L 127 179 L 126 180 L 126 185 L 127 186 L 127 188 L 131 192 L 132 192 L 133 193 L 140 193 L 141 192 L 142 192 L 146 188 L 146 187 L 147 186 L 147 179 L 146 178 L 146 177 L 142 173 L 141 173 L 140 172 Z" />
    <path d="M 299 119 L 297 121 L 296 121 L 295 122 L 295 123 L 294 124 L 294 125 L 293 126 L 293 133 L 294 134 L 294 135 L 297 138 L 298 138 L 299 139 L 300 139 L 301 140 L 325 140 L 326 139 L 327 139 L 328 138 L 329 138 L 332 135 L 332 134 L 333 133 L 333 126 L 332 125 L 332 124 L 331 123 L 331 122 L 330 121 L 329 121 L 327 119 Z" />
    <path d="M 234 119 L 232 121 L 231 121 L 230 122 L 230 123 L 229 124 L 229 125 L 228 126 L 228 133 L 229 134 L 229 135 L 232 138 L 233 138 L 234 139 L 235 139 L 236 140 L 260 140 L 261 139 L 262 139 L 263 138 L 264 138 L 267 135 L 267 134 L 268 133 L 268 126 L 267 125 L 267 124 L 266 123 L 266 122 L 265 121 L 264 121 L 262 119 Z" />
    <path d="M 230 2 L 229 3 L 224 3 L 223 4 L 221 4 L 220 5 L 217 5 L 216 6 L 214 6 L 213 7 L 212 7 L 211 8 L 210 8 L 209 9 L 207 9 L 206 10 L 205 10 L 203 12 L 202 12 L 201 13 L 200 13 L 198 15 L 197 15 L 194 18 L 193 18 L 187 24 L 186 24 L 178 32 L 177 32 L 168 41 L 167 41 L 160 48 L 159 48 L 150 57 L 149 57 L 140 66 L 139 66 L 131 74 L 130 74 L 127 77 L 126 77 L 125 78 L 122 78 L 121 79 L 116 79 L 115 80 L 111 80 L 110 81 L 104 81 L 103 82 L 98 82 L 97 83 L 91 83 L 90 84 L 84 84 L 83 85 L 78 85 L 77 86 L 70 86 L 69 87 L 64 87 L 63 88 L 57 88 L 56 89 L 52 89 L 51 90 L 46 90 L 45 91 L 42 91 L 41 92 L 39 92 L 38 93 L 36 93 L 35 94 L 34 94 L 31 97 L 30 97 L 26 101 L 26 102 L 23 105 L 23 106 L 21 108 L 21 109 L 20 110 L 20 111 L 18 113 L 18 114 L 17 115 L 17 116 L 16 117 L 16 118 L 15 119 L 15 120 L 14 121 L 14 122 L 13 123 L 13 125 L 12 126 L 12 127 L 11 128 L 11 130 L 10 131 L 10 132 L 9 133 L 9 135 L 8 136 L 8 138 L 7 139 L 7 141 L 6 142 L 6 197 L 7 198 L 7 199 L 11 203 L 13 203 L 14 204 L 84 204 L 86 206 L 86 207 L 87 208 L 87 209 L 88 210 L 88 211 L 90 213 L 90 214 L 92 216 L 92 217 L 98 223 L 98 224 L 99 224 L 104 229 L 105 229 L 107 231 L 108 231 L 109 232 L 110 232 L 111 233 L 112 233 L 113 234 L 114 234 L 115 235 L 116 235 L 117 236 L 119 236 L 120 237 L 122 237 L 123 238 L 127 238 L 128 239 L 145 239 L 146 238 L 150 238 L 151 237 L 153 237 L 154 236 L 156 236 L 157 235 L 158 235 L 159 234 L 161 234 L 163 232 L 164 232 L 165 231 L 166 231 L 168 229 L 169 229 L 173 225 L 174 225 L 177 222 L 177 221 L 181 217 L 181 216 L 183 214 L 183 213 L 185 211 L 185 210 L 186 209 L 186 208 L 187 207 L 187 206 L 189 204 L 397 204 L 399 206 L 399 208 L 401 210 L 401 211 L 402 212 L 402 213 L 404 215 L 404 216 L 407 219 L 407 220 L 414 227 L 415 227 L 418 230 L 419 230 L 420 231 L 421 231 L 423 233 L 424 233 L 425 234 L 426 234 L 427 235 L 429 235 L 430 236 L 432 236 L 433 237 L 435 237 L 436 238 L 440 238 L 441 239 L 457 239 L 458 238 L 463 238 L 464 237 L 466 237 L 467 236 L 469 236 L 470 235 L 471 235 L 472 234 L 473 234 L 474 233 L 475 233 L 476 232 L 477 232 L 479 230 L 480 230 L 482 228 L 483 228 L 493 218 L 493 217 L 495 215 L 495 214 L 497 212 L 497 211 L 498 210 L 498 209 L 499 208 L 499 207 L 500 206 L 500 205 L 501 204 L 548 204 L 549 203 L 551 203 L 552 202 L 554 202 L 555 201 L 556 201 L 557 200 L 558 200 L 565 193 L 565 192 L 566 191 L 566 190 L 567 189 L 567 188 L 568 187 L 568 185 L 569 184 L 569 93 L 568 92 L 568 91 L 567 90 L 567 88 L 566 87 L 566 86 L 565 85 L 565 83 L 564 82 L 564 81 L 563 80 L 563 78 L 562 77 L 562 76 L 561 75 L 561 74 L 560 73 L 560 71 L 559 70 L 559 69 L 558 68 L 558 66 L 557 65 L 557 64 L 556 63 L 556 61 L 555 60 L 555 59 L 554 58 L 554 56 L 553 55 L 553 54 L 552 53 L 552 52 L 551 51 L 551 49 L 550 48 L 550 47 L 549 46 L 549 44 L 548 43 L 548 42 L 547 41 L 547 39 L 546 38 L 546 37 L 545 36 L 545 34 L 544 33 L 544 29 L 545 28 L 545 26 L 546 25 L 546 24 L 551 19 L 551 18 L 552 17 L 552 16 L 553 15 L 553 10 L 552 9 L 552 7 L 548 3 L 547 3 L 546 2 Z M 444 148 L 445 147 L 454 147 L 455 148 L 458 148 L 459 149 L 461 149 L 462 150 L 463 150 L 464 151 L 465 151 L 466 152 L 467 152 L 470 155 L 471 155 L 475 159 L 475 160 L 478 163 L 478 164 L 479 165 L 479 166 L 480 167 L 480 168 L 481 169 L 481 170 L 482 171 L 482 174 L 483 175 L 483 180 L 484 181 L 484 184 L 483 185 L 483 190 L 482 191 L 482 194 L 481 195 L 481 196 L 480 197 L 480 198 L 479 199 L 479 200 L 478 201 L 478 202 L 475 205 L 475 206 L 471 210 L 470 210 L 467 213 L 466 213 L 465 214 L 464 214 L 463 215 L 462 215 L 461 216 L 459 216 L 458 217 L 455 217 L 454 218 L 444 218 L 443 217 L 440 217 L 439 216 L 437 216 L 436 215 L 435 215 L 434 214 L 433 214 L 431 212 L 430 212 L 421 203 L 421 202 L 419 200 L 419 199 L 418 198 L 418 197 L 417 196 L 417 194 L 416 193 L 416 190 L 415 189 L 415 176 L 416 175 L 416 172 L 417 171 L 417 169 L 418 168 L 418 167 L 419 166 L 419 165 L 421 163 L 421 162 L 430 153 L 431 153 L 433 151 L 434 151 L 435 150 L 436 150 L 437 149 L 439 149 L 440 148 Z M 131 148 L 132 147 L 141 147 L 142 148 L 146 148 L 147 149 L 148 149 L 149 150 L 151 150 L 152 151 L 153 151 L 155 153 L 156 153 L 164 161 L 164 162 L 166 164 L 166 165 L 167 166 L 167 167 L 168 168 L 168 169 L 169 170 L 169 172 L 170 173 L 170 177 L 171 178 L 171 187 L 170 188 L 170 192 L 169 193 L 169 195 L 168 196 L 168 197 L 167 198 L 167 199 L 166 200 L 166 201 L 164 203 L 164 204 L 156 212 L 155 212 L 153 214 L 152 214 L 151 215 L 149 215 L 148 216 L 146 216 L 145 217 L 143 217 L 142 218 L 131 218 L 130 217 L 128 217 L 127 216 L 125 216 L 124 215 L 123 215 L 122 214 L 121 214 L 120 213 L 119 213 L 117 211 L 116 211 L 109 204 L 109 203 L 107 201 L 107 200 L 106 199 L 106 198 L 105 197 L 105 196 L 104 195 L 104 192 L 103 191 L 103 188 L 102 187 L 102 178 L 103 177 L 103 174 L 104 173 L 104 170 L 105 169 L 105 168 L 106 167 L 106 166 L 107 165 L 107 164 L 109 162 L 109 161 L 116 154 L 117 154 L 119 152 L 120 152 L 121 151 L 122 151 L 123 150 L 124 150 L 125 149 L 127 149 L 128 148 Z" />
  </g>
</svg>