<svg xmlns="http://www.w3.org/2000/svg" width="50" height="25" viewBox="0 0 426 211" fill="none">
  <path d="M 81.00 203.50 L 71.00 203.50 L 56.00 198.50 L 43.50 187.00 L 37.00 173.50 L 7.50 164.00 L 5.50 156.00 L 11.50 112.00 L 13.50 107.00 L 19.00 102.50 L 37.00 93.50 L 62.00 83.50 L 69.00 82.50 L 119.00 32.50 L 137.00 19.50 L 158.00 9.50 L 173.00 5.50 L 388.00 8.50 L 398.00 10.50 L 407.50 18.00 L 411.50 26.00 L 415.50 46.00 L 419.50 92.00 L 419.50 145.00 L 418.50 160.00 L 415.00 164.50 L 372.00 173.50 L 367.50 184.00 L 361.00 191.50 L 348.00 199.50 L 340.00 201.50 L 324.00 200.50 L 313.00 195.50 L 304.50 188.00 L 296.00 173.50 L 239.00 173.50 L 114.00 174.50 L 109.50 185.00 L 100.00 195.50 L 89.00 201.50 Z M 388.50 136.00 L 392.50 93.00 L 398.00 88.50 L 405.50 88.00 L 404.50 64.00 L 401.50 42.00 L 398.50 29.00 L 394.00 23.50 L 377.00 21.50 L 211.00 18.50 L 175.00 18.50 L 156.00 24.50 L 141.00 32.50 L 130.00 40.50 L 76.00 94.50 L 68.00 95.50 L 43.00 105.50 L 48.00 107.50 L 51.50 111.00 L 50.50 117.00 L 40.00 128.50 L 27.50 136.00 L 48.00 136.50 L 54.00 131.50 L 64.00 126.50 L 83.00 125.50 L 96.00 130.50 L 104.00 136.50 L 305.00 136.50 L 316.00 127.50 L 328.00 123.50 L 346.00 124.50 L 356.00 129.50 L 364.00 136.50 Z M 94.00 106.50 L 82.00 106.50 L 78.50 102.00 L 79.50 97.00 L 133.00 40.50 L 142.00 36.50 L 161.00 33.50 L 171.00 33.50 L 177.50 37.00 L 178.50 50.00 L 176.50 87.00 L 173.00 95.50 L 153.00 99.50 Z M 212.00 96.50 L 188.00 96.50 L 183.50 92.00 L 183.50 37.00 L 188.00 33.50 L 371.00 35.50 L 379.00 38.50 L 382.50 42.00 L 387.50 52.00 L 391.50 88.00 L 386.00 92.50 Z M 110.50 91.00 L 162.00 84.50 L 163.50 83.00 L 164.50 47.00 L 142.00 50.50 L 103.50 90.00 L 104.00 91.50 Z M 203.50 83.00 L 377.00 79.50 L 377.50 76.00 L 373.50 52.00 L 368.00 48.50 L 197.00 46.50 L 196.50 83.00 Z M 161.00 114.50 L 151.00 114.50 L 147.50 111.00 L 148.50 104.00 L 152.00 101.50 L 160.00 100.50 L 169.00 101.50 L 171.50 104.00 L 171.50 110.00 L 167.00 113.50 Z M 406.50 128.00 L 406.50 103.00 L 405.00 102.50 L 402.50 128.00 Z M 25.50 122.00 L 30.50 119.00 L 25.00 117.50 L 23.50 122.00 Z M 338.50 188.00 L 347.00 185.50 L 355.50 178.00 L 359.50 170.00 L 360.50 158.00 L 357.50 150.00 L 349.00 140.50 L 339.00 136.50 L 330.00 136.50 L 320.00 140.50 L 312.50 148.00 L 308.50 158.00 L 308.50 165.00 L 311.50 175.00 L 319.00 183.50 L 331.00 188.50 Z M 78.50 190.00 L 88.00 187.50 L 97.50 179.00 L 101.50 170.00 L 101.50 159.00 L 98.50 151.00 L 89.00 141.50 L 81.00 138.50 L 70.00 138.50 L 60.00 143.50 L 54.50 149.00 L 50.50 157.00 L 49.50 165.00 L 51.50 174.00 L 58.00 183.50 L 69.00 189.50 Z M 335.00 180.50 L 329.00 179.50 L 322.00 175.50 L 316.50 165.00 L 316.50 159.00 L 319.50 152.00 L 324.00 147.50 L 331.00 144.50 L 338.00 144.50 L 345.00 147.50 L 350.50 154.00 L 352.50 160.00 L 352.50 165.00 L 349.50 172.00 L 344.00 177.50 Z M 79.00 182.50 L 67.00 180.50 L 62.50 177.00 L 57.50 167.00 L 57.50 162.00 L 60.50 154.00 L 65.00 149.50 L 71.00 146.50 L 81.00 146.50 L 85.00 148.50 L 89.50 152.00 L 93.50 159.00 L 93.50 169.00 L 91.50 174.00 L 86.00 179.50 Z M 37.50 159.00 L 39.00 149.50 L 19.50 150.00 L 20.00 154.50 L 31.00 158.50 Z M 195.50 161.00 L 295.00 160.50 L 297.50 150.00 L 112.50 150.00 L 115.00 161.50 Z M 377.50 159.00 L 402.00 154.50 L 405.50 153.00 L 405.50 150.00 L 372.00 149.50 L 373.50 159.00 Z M 337.50 166.00 L 339.50 163.00 L 338.50 160.00 L 336.00 157.50 L 333.00 157.50 L 329.50 162.00 L 330.50 165.00 L 332.00 166.50 Z M 77.50 169.00 L 80.50 166.00 L 80.50 162.00 L 78.00 159.50 L 74.00 159.50 L 70.50 165.00 L 73.00 168.50 Z" fill="#FFFFFF" fill-rule="evenodd"/>
</svg>